# xmcd
#
# Track frame offsets:
#	150
#	17626
#	35325
#	54744
#	70816
#	84683
#	100186
#	119485
#	134820
#	144439
#	164417
#	182095
#	197773
#	223538
#	239238
#	260742
#	279801
#	296712
#
# Disc length: 4157 seconds
#
# Revision: 0
# Processed by: cddbd v1.5.1PL0 Copyright (c) Steve Scherf et al.
# Submitted via: dBpowerAMP V4.0
#
DISCID=1e103b12
DTITLE=Various Artist - Lovely Memory 2
DYEAR=2005
DGENRE=
TTITLE0=Love Hurts - Nazareth
TTITLE1=Just Another Day In Paradise - Bertie Higgins
TTITLE2=I Need You - F. R. David
TTITLE3=Love's Gotta Hold On Me - Dollar
TTITLE4=Save Your Kisses For Me - Brotherhood Of Man
TTITLE5=The Rose - Carry 'N' Ron
TTITLE6=Reflections Of My Life - The Marmalades
TTITLE7=Sad Sweet Dreamer - Sweet Sensation
TTITLE8=Snowbird - Lynn Anderson
TTITLE9=Right Here Waiting - Jose Feliciano
TTITLE10=You Belong To Me - Air Supply
TTITLE11=The Words "I Love You" - Chris De Burgh
TTITLE12=Baby Come To Me - Regina Belle
TTITLE13=A Long and Lasting Love - Crystal Gayle
TTITLE14=If I Sing You A Love Song - Bonnie Tyler
TTITLE15=When I Miss U - Tony Rich Project
TTITLE16=Wanna Be Loved - Rebecca
TTITLE17=Nothing's Gonna Stop Us Now - Mandy and Randy
EXTD=
EXTT0=
EXTT1=
EXTT2=
EXTT3=
EXTT4=
EXTT5=
EXTT6=
EXTT7=
EXTT8=
EXTT9=
EXTT10=
EXTT11=
EXTT12=
EXTT13=
EXTT14=
EXTT15=
EXTT16=
EXTT17=
PLAYORDER=
